#!OML:ASF F:\VICON\USERDATA\INSTALL\rory3\rory3.ASF
:FULLY-SPECIFIED
:DEGREES
34
root 0.5555083138663185 16.534200006225724 -11.803227780451753 13.453352002326424 -0.9065581211929248 -2.382628015082935
lfemur -33.87274800718804 10.324202934145791 -19.56040131881839
ltibia 41.69061131495992
lfoot -16.48341034406238 6.7103095525709495
ltoes -12.183714097737706
rfemur -33.27154929899421 -3.949014338531003 22.015029813293573
rtibia 43.25845053760293
rfoot -19.398613781222235 -4.307482444208581
rtoes 2.6746641377209137
lowerback 5.999339146059354 0.255820012422258 0.7582311483193327
upperback 6.793446060147804 0.2707053978290035 2.0360149396733123
thorax 1.4910860787790399 0.11062368075383577 1.7498422063331227
lowerneck -14.209263159518251 0.12947300776555629 -1.9283930727777745
upperneck 19.402915283963644 0.44828616305958147 0.6027041445825605
head 8.407819951073392 0.09642707784752952 0.6686956577909557
lclavicle 1.2349672421513386e-15 -1.1953539589995136e-15
lhumerus -26.187403479484043 -3.8043516792005807 86.65711637423196
lradius 21.99938793310925
lwrist 6.932201779720232
lhand -24.210516634127657 -4.072398914542399
lfingers 7.125019999999998
lthumb 2.274028910769664 25.885007509937623
rclavicle 1.2349672421513386e-15 -1.1953539589995136e-15
rhumerus -24.002616108109258 -13.529197427663213 -78.64788233097832
rradius 27.273171841172125
rwrist 33.382233528169095
rhand -17.10550418052521 -26.228390889587676
rfingers 7.125019999999998
rthumb 9.133325854712389 -56.0055678756957
35
root 0.5628902333925232 16.360572086947343 -13.182797139071765 14.21762458172363 -0.9586559094598138 -2.4240170845761098
lfemur -36.79068557575633 10.446661048884815 -19.89255144837625
ltibia 44.38627701859335
lfoot -17.383382824665734 7.233125147928961
ltoes -13.206455805029519
rfemur -36.19049805415598 -4.057061909367377 22.200001586396642
rtibia 46.13087195396628
rfoot -20.380666384661804 -4.695565434078334
rtoes 1.8394788703282323
lowerback 7.081278440071028 0.3357817419118289 0.7361881025680628
upperback 7.235910372470343 0.3901280065646837 2.054221345277427
thorax 0.9439119339438455 0.16517504714998407 1.7656107058179031
lowerneck -14.526945587540522 0.1314043400166879 -1.911547812408676
upperneck 17.44208292387405 0.4536869487736853 0.4409208595412317
head 7.7277098119155365 0.10668905264823159 0.6253695632674129
lclavicle 1.11096581476944e-15 -1.3315991545096539e-15
lhumerus -28.445687073593373 -4.453869653167016 86.47246261769065
lradius 22.082403971771285
lwrist 8.094626926448719
lhand -24.31436198747734 -4.111841591467882
lfingers 7.125019999999998
lthumb 2.173743167156634 25.843831987980963
rclavicle 1.11096581476944e-15 -1.3315991545096539e-15
rhumerus -25.34587884109079 -13.575879427370538 -78.14948665626018
rradius 27.22293474943538
rwrist 33.169306073918186
rhand -16.953025213724466 -26.160981599293326
rfingers 7.125019999999998
rthumb 9.28039081472838 -55.92861969004355
36
root 0.5705873751043775 16.171927831382586 -14.334336205955108 15.187729068168426 -1.0055516396768476 -2.4550553969504794
lfemur -39.96727157172651 10.499822158433687 -20.216355352601095
ltibia 47.75492578188836
lfoot -18.47154469062138 8.111426303804915
ltoes -14.405484062846803
rfemur -39.38234516966406 -4.065201764103299 22.442486052263448
rtibia 49.780170232092615
rfoot -21.625885237271365 -5.229987531650346
rtoes 0.9515446889081582
lowerback 8.415497668660915 0.4262933085976594 0.6929859464773982
upperback 7.627904902968993 0.5255518860034588 2.0830982609076463
thorax 0.27567788767900137 0.23044155903552552 1.803483056625019
lowerneck -14.919886540658714 0.14694380672180676 -1.8929048592201996
upperneck 15.31976853858823 0.4873116888882457 0.2720087073291191
head 7.015901426918844 0.12704258601108873 0.5808029243890882
lclavicle 1.0688903061620904e-15 -1.3778819723822537e-15
lhumerus -31.10585840385653 -4.686147745607651 86.15857720433644
lradius 22.025405338692362
lwrist 9.234537097789097
lhand -24.37200769945145 -4.095486028420016
lfingers 7.125019999999998
lthumb 2.118079499917053 25.85853574914697
rclavicle 1.0688903061620904e-15 -1.3778819723822537e-15
rhumerus -26.951328830875745 -13.65151964237534 -77.42247222262925
rradius 27.196178646448026
rwrist 33.04982878186142
rhand -16.742821256438333 -26.07082748179688
rfingers 7.125019999999998
rthumb 9.48314365585749 -55.826570466665125
37
root 0.5750893321767739 15.977325489383539 -15.38292247852403 16.350217576530838 -1.0501388444643722 -2.4435426753569436
lfemur -43.23475494090436 10.503863495767991 -20.59324087180591
ltibia 51.215594638362646
lfoot -19.48759772666812 9.133550006893483
ltoes -15.381626223098348
rfemur -42.68235936298821 -3.960919049134203 22.618518920009084
rtibia 53.48740288053157
rfoot -22.806675924382926 -5.9117966436244584
rtoes 0.22215531121140852
lowerback 9.859169266438263 0.5112752619054178 0.6218924932898016
upperback 7.990706904604254 0.6563707254930191 2.1156399743482748
thorax -0.4715609631316169 0.29340772168298634 1.8619328768713908
lowerneck -15.367947086381609 0.16316853724289646 -1.879523647742504
upperneck 13.116328558820676 0.529533281481219 0.09011804135637624
head 6.2932213479999906 0.14872497283834638 0.5348824236865607
lclavicle 1.073913734868681e-15 -1.3723562422645571e-15
lhumerus -34.00702831539688 -4.381770799496682 85.64376710759257
lradius 21.762062345693987
lwrist 10.003165023962861
lhand -24.32878338461802 -4.0478602030615605
lfingers 7.125019999999998
lthumb 2.159823259870245 25.904444998297716
rclavicle 1.073913734868681e-15 -1.3723562422645571e-15
rhumerus -28.87203191039481 -13.987574842514165 -76.50473519111968
rradius 26.858311164569688
rwrist 33.07244930236196
rhand -16.478607567372585 -25.90131115109684
rfingers 7.125019999999998
rthumb 9.737993438909514 -55.6406184370582
38
root 0.5707542965415109 15.742322571176818 -16.335484550456734 17.754076807838832 -1.0705729576672336 -2.4470390841979452
lfemur -46.939234161568336 10.38490574152021 -20.950970778420906
ltibia 55.04018069099196
lfoot -20.654499307914016 10.48720640713812
ltoes -16.5528703349624
rfemur -46.39797555990159 -3.790991699730811 22.813596171073634
rtibia 57.63150746610552
rfoot -24.25883567274147 -7.067395134054605
rtoes -0.7017640628426047
lowerback 11.414937010051922 0.5846410909533866 0.49911258518635965
upperback 8.16036182058097 0.7739496638409784 2.1468365552475133
thorax -1.4507645233084032 0.3528825814085196 1.93445585857879
lowerneck -15.99231132992722 0.18235177875008982 -1.8715339261549155
upperneck 10.907530234144275 0.5719920421784471 -0.07248391640205942
head 5.6187292181128194 0.17186306407332505 0.49480507195307966
lclavicle 1.0344263205183142e-15 -1.4157390087686031e-15
lhumerus -37.22098551005311 -3.6479561854773754 84.94225921928584
lradius 21.014130804713947
lwrist 9.855414395734895
lhand -24.164246151005987 -3.908903740525916
lfingers 7.125019999999998
lthumb 2.3187208578589757 26.04115654350137
rclavicle 1.0344263205183142e-15 -1.4157390087686031e-15
rhumerus -31.08708813472255 -14.61804010806513 -75.44776297102658
rradius 26.258049774004228
rwrist 33.306547975031755
rhand -16.156595627426828 -25.73103268017751
rfingers 7.125019999999998
rthumb 10.048608071209536 -55.45300720616252
